HIERARCHY
ROOT Hips
{
	OFFSET 0.00000 0.00000 0.00000
	CHANNELS 6 Xposition Yposition Zposition Zrotation Yrotation Xrotation 
	JOINT LHipJoint
	{
		OFFSET 0 0 0
		CHANNELS 3 Zrotation Yrotation Xrotation
		JOINT LeftHip
		{
			OFFSET 1.44361 -1.63093 0.70831
			CHANNELS 3 Zrotation Yrotation Xrotation
			JOINT LeftKnee
			{
				OFFSET 2.20103 -6.04728 0.00000
				CHANNELS 3 Zrotation Yrotation Xrotation
				JOINT LeftAnkle
				{
					OFFSET 2.54154 -6.98283 0.00000
					CHANNELS 3 Zrotation Yrotation Xrotation
					JOINT LeftToe
					{
						OFFSET 0.05971 -0.16406 1.77582
						CHANNELS 3 Zrotation Yrotation Xrotation
						End Site
						{
							OFFSET 0.00000 -0.00000 0.90832
						}
					}
				}
			}
		}
	}
	JOINT RHipJoint
	{
		OFFSET 0 0 0
		CHANNELS 3 Zrotation Yrotation Xrotation
		JOINT RightHip
		{
			OFFSET -1.65838 -1.63093 0.70830
			CHANNELS 3 Zrotation Yrotation Xrotation
			JOINT RightKnee
			{
				OFFSET -2.26926 -6.23475 0.00000
				CHANNELS 3 Zrotation Yrotation Xrotation
				JOINT RightAnkle
				{
					OFFSET -2.34808 -6.45129 0.00000
					CHANNELS 3 Zrotation Yrotation Xrotation
					JOINT RightToe
					{
						OFFSET -0.18633 -0.51195 1.68539
						CHANNELS 3 Zrotation Yrotation Xrotation
						End Site
						{
							OFFSET -0.00000 -0.00000 0.88927
						}
					}
				}
			}
		}
	}
	JOINT lowerback
	{
		OFFSET 0 0 0
		CHANNELS 3 Zrotation Yrotation Xrotation
		JOINT Chest
		{
			OFFSET -0.10393 2.01691 0.06920
			CHANNELS 3 Zrotation Yrotation Xrotation
			JOINT Chest2
			{
				OFFSET 0.04092 2.01302 -0.05283
				CHANNELS 3 Zrotation Yrotation Xrotation
				JOINT lowerneck
				{
					OFFSET 0 0 0
					CHANNELS 3 Zrotation Yrotation Xrotation
					JOINT Neck
					{
						OFFSET -0.02870 1.58978 -0.03113
						CHANNELS 3 Zrotation Yrotation Xrotation
						JOINT Head
						{
							OFFSET 0.11532 1.54326 -0.29195
							CHANNELS 3 Zrotation Yrotation Xrotation
							End Site
							{
								OFFSET 0.04056 1.59999 -0.09535
							}
						}
					}
				}
				JOINT LeftCollar
				{
					OFFSET 0 0 0
					CHANNELS 3 Zrotation Yrotation Xrotation
					JOINT LeftShoulder
					{
						OFFSET 3.30641 1.15764 0.01104
CHANNELS 3 Zrotation Xrotation Yrotation
						JOINT LeftElbow
						{
OFFSET 0 -4.632080 0.000000
CHANNELS 3 Zrotation Xrotation Yrotation
							JOINT LeftWrist
							{
OFFSET 0 -3.419240 -0.000000
CHANNELS 3 Zrotation Xrotation Yrotation
								JOINT lhand
								{
									OFFSET 0 0 0
CHANNELS 3 Zrotation Xrotation Yrotation
									JOINT LFingers
									{
OFFSET 0 -0.625370 -0.000000
CHANNELS 3 Zrotation Xrotation Yrotation
										End Site
										{
OFFSET 0 -0.504190 -0.000000
										}
									}
								}
								JOINT LThumb
								{
OFFSET 0 0.000000 0.000000
CHANNELS 3 Zrotation Xrotation Yrotation
									End Site
									{
OFFSET 0 -0.511890 0.511890
									}
								}
							}
						}
					}
				}
				JOINT RightCollar
				{
					OFFSET 0 0 0
					CHANNELS 3 Zrotation Yrotation Xrotation
					JOINT RightShoulder
					{
						OFFSET -3.78081 1.02180 -0.16609
CHANNELS 3 Zrotation Xrotation Yrotation
						JOINT RightElbow
						{
OFFSET 0 -4.406400 -0.000000
CHANNELS 3 Zrotation Xrotation Yrotation
							JOINT RightWrist
							{
OFFSET 0 -3.446750 0.000000
CHANNELS 3 Zrotation Xrotation Yrotation
								JOINT rhand
								{
									OFFSET 0 0 0
CHANNELS 3 Zrotation Xrotation Yrotation
									JOINT RFingers
									{
OFFSET 0 -0.513670 -0.000000
CHANNELS 3 Zrotation Xrotation Yrotation
										End Site
										{
OFFSET 0 -0.414140 -0.000000
										}
									}
								}
								JOINT RThumb
								{
OFFSET 0 0.000000 0.000000
CHANNELS 3 Zrotation Xrotation Yrotation
									End Site
									{
OFFSET 0 -0.420460 0.420460
									}
								}
							}
						}
					}
				}
			}
		}
	}
}
MOTION
Frames: 4
Frame Time: 0.008333333333333333
7.653796 18.573314 18.946727 176.498513 -5.592592 -167.013319 0.000000 0.000000 0.000000 -25.740474 -8.599294 5.883521 1.301951 7.224973 20.385191 0.014798 -9.522104 -6.902632 7.962762 -16.086662 -52.420171 0.000000 0.000000 0.000000 6.997973 16.118069 -48.645052 -1.948813 -8.757327 25.039977 0.144446 -6.993381 -4.611843 -4.260966 12.470585 -37.461514 -7.797283 -1.910715 3.278315 2.598494 -3.031839 4.983091 7.086333 -2.011220 3.909186 -3.960088 -2.247611 -6.837595 5.237274 -1.728429 26.455412 2.449088 0.087057 9.530132 0.000000 0.000000 0.000000 -1.731860 -10.476452 -33.384064 16.208100 -25.802000 3.736100 33.572711 4.319073 22.129263 0.000000 0.000000 0.000000 -7.125000 0.000000 0.000000 2.907965 3.993055 2.701338 0.000000 0.000000 0.000000 4.197684 11.292272 -50.010307 -6.228467 -10.642687 -0.580687 -12.927168 59.051139 35.043582 0.000000 0.000000 0.000000 7.125000 0.000000 0.000000 25.425239 63.965106 -12.073327
7.658739 18.663485 18.674351 176.743828 -5.275881 -166.720891 0.000000 0.000000 0.000000 -25.528667 -8.540343 5.753830 1.440561 7.583866 21.459272 -0.007344 -7.604315 -5.019662 8.350250 -16.370559 -53.814130 0.000000 0.000000 0.000000 7.660824 16.282801 -48.227200 -2.035688 -8.939957 25.607662 0.108183 -6.356265 -5.045412 -3.576586 11.573926 -34.241660 -7.113563 -1.885385 3.262929 2.775304 -2.991860 4.886937 6.886521 -1.958677 3.774425 -4.072329 -2.101274 -6.555553 5.042988 -1.521498 25.929039 2.404123 0.122387 9.277762 0.000000 0.000000 0.000000 -1.919859 -9.507331 -32.802974 16.159416 -25.735985 3.715123 34.079165 3.940545 21.813541 0.000000 0.000000 0.000000 -7.125000 0.000000 0.000000 3.272406 4.224513 3.027427 0.000000 0.000000 0.000000 3.717539 10.917744 -49.622753 -6.215155 -10.620463 -0.578221 -12.428393 59.117356 35.681753 0.000000 0.000000 0.000000 7.125000 0.000000 0.000000 26.663083 64.392189 -12.960358
7.666631 18.760876 18.397518 176.851047 -4.959734 -166.433486 0.000000 0.000000 0.000000 -25.376178 -8.432306 5.363449 1.661402 8.117577 23.074254 -0.021640 -3.776459 -1.030903 8.146683 -16.225665 -53.088617 0.000000 0.000000 0.000000 8.324239 16.254135 -47.558200 -2.074481 -9.019329 25.855903 0.074305 -5.714442 -5.346220 -3.422311 11.348543 -33.465367 -6.602338 -1.893576 3.296881 2.916773 -2.996699 4.740628 6.749668 -1.929862 3.577709 -4.162348 -1.958390 -6.299122 4.724981 -1.278097 25.541264 2.320805 0.173911 9.080003 0.000000 0.000000 0.000000 -2.064232 -8.625085 -32.180957 15.849226 -25.315375 3.581472 34.022875 3.903242 21.479302 0.000000 0.000000 0.000000 -7.125000 0.000000 0.000000 3.294743 4.618989 3.023779 0.000000 0.000000 0.000000 3.195964 10.536373 -48.730455 -6.229526 -10.644438 -0.580901 -12.262055 59.025327 36.183522 0.000000 0.000000 0.000000 7.125000 0.000000 0.000000 27.420539 64.782048 -13.602330
7.682765 18.856509 18.121958 176.905543 -4.804302 -166.098811 0.000000 0.000000 0.000000 -25.112971 -8.423411 4.564012 2.005990 8.859513 25.369664 0.025453 -0.120346 2.475109 8.424471 -16.419772 -54.072901 0.000000 0.000000 0.000000 8.898632 16.079057 -46.810904 -2.076549 -9.023677 25.869375 0.015883 -4.886998 -6.342364 -3.145136 10.919905 -32.017251 -6.187106 -1.936612 3.158424 3.044910 -3.037778 4.619105 6.644631 -1.928621 3.516435 -4.296848 -1.840474 -6.111472 4.522782 -1.088691 25.197668 2.281726 0.211679 8.915938 0.000000 0.000000 0.000000 -2.058436 -7.981485 -31.913273 15.312510 -24.576913 3.356495 33.311489 4.019805 21.335349 0.000000 0.000000 0.000000 -7.125000 0.000000 0.000000 2.878693 4.954257 2.624224 0.000000 0.000000 0.000000 2.737354 10.083795 -47.090038 -6.275348 -10.720652 -0.589399 -12.877591 58.546905 35.784396 0.000000 0.000000 0.000000 7.125000 0.000000 0.000000 26.296515 64.602560 -12.903383
